PathFileType	4	(X/Y/Z)	s07c0301.trc
DataRate	CameraRate	NumFrames	NumMarkers	Units	OrigDataRate	OrigDataStartFrame	OrigNumFrames
200	200	4	48	mm	200	1500	2000
Frame#	Time	racr			lacr			c7			jug			rlel			rdr			llel			ldr			s2			lic			ric			lasi			rasi			rpsi			lpsi			rgt			lgt			rth1			rth2			rth3			rth4			rlfc			rmfc			rsh1			rsh2			rsh3			rsh4			rlmal			rcal			rtoe			rmt5			lth1			lth2			lth4			lth3			llfc			lmfc			lsh1			lsh2			lsh3			lsh4			llmal			lcal			ltoe			lmt5			SBIKE			LBIKE			RBIKE			
		X1	Y1	Z1	X2	Y2	Z2	X3	Y3	Z3	X4	Y4	Z4	X5	Y5	Z5	X6	Y6	Z6	X7	Y7	Z7	X8	Y8	Z8	X9	Y9	Z9	X10	Y10	Z10	X11	Y11	Z11	X12	Y12	Z12	X13	Y13	Z13	X14	Y14	Z14	X15	Y15	Z15	X16	Y16	Z16	X17	Y17	Z17	X18	Y18	Z18	X19	Y19	Z19	X20	Y20	Z20	X21	Y21	Z21	X22	Y22	Z22	X23	Y23	Z23	X24	Y24	Z24	X25	Y25	Z25	X26	Y26	Z26	X27	Y27	Z27	X28	Y28	Z28	X29	Y29	Z29	X30	Y30	Z30	X31	Y31	Z31	X32	Y32	Z32	X33	Y33	Z33	X34	Y34	Z34	X35	Y35	Z35	X36	Y36	Z36	X37	Y37	Z37	X38	Y38	Z38	X39	Y39	Z39	X40	Y40	Z40	X41	Y41	Z41	X42	Y42	Z42	X43	Y43	Z43	X44	Y44	Z44	X45	Y45	Z45	X46	Y46	Z46	X47	Y47	Z47	X48	Y48	Z48	
1500	7.5000	600.374629	1518.232209	-37.927531	655.423360	1486.046401	-366.989363	619.821730	1567.838742	-203.882731	593.553358	1418.259656	-201.603986	609.693082	1166.687569	0.774493	728.521718	900.683639	-77.121120	543.918535	1152.887915	-460.782303	728.848551	920.673715	-412.211127	85.934603	1260.551123	-241.815667	257.873364	1274.218717	-375.347816	244.844429	1297.158343	-81.395169	277.719882	1194.369120	-340.384867	254.303853	1233.329911	-88.295772	113.193180	1298.342924	-192.946833	131.063391	1293.874689	-299.338848	151.952754	1177.175414	-33.728915	170.245422	1129.955001	-390.512029	187.123095	1042.864092	20.200047	216.300175	964.164204	46.506483	202.701721	883.981814	74.660287	251.657491	964.117001	35.961553	196.680029	746.690094	101.824869	201.946188	700.052425	8.497817	65.169178	687.965578	122.422756	9.103845	617.764949	123.132871	-71.983460	587.473935	120.723864	30.050713	591.585270	100.010462	-189.567391	503.037788	126.788780	-250.847823	513.771183	75.056714	-91.448021	290.894962	173.358944	-181.146372	345.243453	207.428518	182.538709	1015.076850	-407.304875	217.454029	934.101726	-410.698158	253.282540	939.047114	-400.374205	206.848653	845.753199	-407.252731	224.321826	678.468515	-385.546437	216.770489	659.001308	-297.190549	168.070290	543.171599	-411.856784	166.058015	458.457596	-395.949971	119.293708	380.891513	-401.489920	171.213146	459.505754	-353.543484	71.171138	254.677823	-396.524289	-0.108761	226.439827	-364.233325	281.937389	156.290299	-364.084633	192.135373	145.067285	-428.400872	-263.626547	973.260236	-238.871113	-83.145504	79.152957	-437.901551	-83.219562	79.002260	-40.329577	
1501	7.5050	600.439936	1518.247605	-38.404064	655.769240	1486.025653	-367.316032	620.065257	1568.006287	-204.177994	593.660276	1418.346898	-202.111225	609.815646	1166.810430	0.315015	728.536221	900.673526	-77.245051	543.992277	1152.931363	-461.034875	728.832892	920.667558	-412.241784	86.023643	1260.887950	-242.982087	258.226008	1274.214144	-376.221644	244.592837	1297.900467	-82.382963	278.089038	1194.472699	-341.019928	254.067473	1234.253346	-89.216943	113.133260	1298.798845	-194.193537	131.368770	1294.030108	-300.481272	151.716160	1178.138397	-34.625222	170.683771	1129.912251	-391.156303	187.536650	1044.306880	19.864345	217.061814	965.828246	46.365926	203.934051	885.759562	75.022782	252.404896	965.853036	35.623057	197.976298	748.652823	102.802075	203.173562	701.662173	9.530160	65.546930	691.399144	122.551928	8.622201	621.902108	123.228604	-72.829108	592.637109	120.223429	29.438974	595.399947	100.436083	-191.466086	510.385824	126.227146	-252.221936	521.161807	73.244940	-96.944197	296.966939	174.209808	-185.176635	352.726354	208.094298	183.341248	1015.131274	-407.810113	218.632846	934.301282	-410.864612	254.355615	939.469046	-400.424946	208.384995	845.897012	-407.509186	225.813007	678.391626	-386.022929	217.910287	658.991567	-297.728986	168.439125	543.380956	-412.057419	165.474372	458.646384	-396.024792	117.953212	381.704138	-401.649948	170.486110	459.775629	-353.633941	68.344888	256.050048	-396.706439	-3.230968	228.721380	-364.422249	277.977907	155.227456	-363.978436	189.911491	145.073500	-428.376832	-263.653956	973.277384	-238.884002	-83.157841	79.155938	-437.906469	-83.254630	78.994181	-40.332640	
1502	7.5100	600.501079	1518.281737	-38.899600	656.164708	1485.949939	-367.658880	620.302486	1568.065155	-204.602660	593.715111	1418.411604	-202.575821	609.937120	1166.938195	-0.129644	728.612201	900.548212	-77.327710	544.080507	1152.965127	-461.304112	728.830988	920.701874	-412.322178	86.109660	1261.151998	-244.025275	258.603965	1274.217301	-377.166943	244.349161	1298.718878	-83.308585	278.513969	1194.689556	-341.693110	253.814090	1235.057872	-90.013634	113.210008	1299.290209	-195.435802	131.625841	1294.130274	-301.581318	151.528499	1179.175764	-35.441555	171.253475	1129.798893	-391.881294	187.895469	1045.762886	19.532230	217.893889	967.521084	46.318513	205.096155	887.586571	75.417284	253.188806	967.588663	35.305488	199.265855	750.640620	103.808904	204.349027	703.215169	10.639076	66.007305	694.880863	122.724804	8.188808	626.082501	123.320171	-73.598375	597.904228	119.754589	28.819179	599.340920	100.901027	-192.921420	516.910537	124.726325	-253.263192	528.508985	71.692301	-102.172933	302.675919	174.891895	-189.394354	359.733201	208.375371	184.209039	1015.157997	-408.371037	219.807786	934.465261	-410.967655	255.460036	939.723529	-400.547879	209.916148	846.038627	-407.734184	227.323937	678.232718	-386.127031	218.999749	658.810740	-298.223857	168.726597	543.560046	-412.213406	164.812552	458.875453	-396.099902	116.494526	382.459187	-401.818434	169.750095	460.004433	-353.676566	65.298710	257.485737	-396.874218	-6.547936	230.974641	-364.686870	273.859157	154.251193	-364.057705	187.562199	145.097240	-428.350411	-263.668266	973.270360	-238.878243	-83.161870	79.142408	-437.916250	-83.255306	79.000928	-40.330745	
1503	7.5150	600.557611	1518.362179	-39.440807	656.631426	1485.882586	-368.008113	620.544425	1568.122056	-205.091669	593.767414	1418.476172	-202.991688	610.022991	1167.108343	-0.521540	728.679884	900.592939	-77.354102	544.144773	1152.989596	-461.524931	728.827290	920.715958	-412.392913	86.284963	1261.447678	-245.242860	259.023705	1274.177706	-378.027069	244.071689	1299.478685	-84.298265	278.988122	1194.801281	-342.369281	253.610976	1236.031175	-90.940797	113.236421	1299.693621	-196.722222	131.931155	1294.233527	-302.765875	151.247658	1180.259494	-36.310671	171.805836	1129.638314	-392.503554	188.216957	1047.295831	19.216319	218.600194	969.270506	46.189717	206.285146	889.420529	75.823418	253.819723	969.312038	35.077631	200.555085	752.651187	104.866560	205.559523	704.881509	11.672641	66.520463	698.347774	122.969332	7.841027	630.297909	123.478962	-74.238195	603.130812	119.322821	28.308369	603.212690	101.297753	-194.516442	523.908528	123.657509	-254.214920	535.848786	70.121558	-106.649181	308.756091	176.417513	-194.040058	367.393649	207.823617	185.060272	1015.096244	-408.948250	220.917904	934.548070	-411.151683	256.524478	939.917675	-400.630389	211.326780	846.082721	-407.983117	228.697170	678.015453	-386.552669	220.055586	658.693190	-298.651193	168.956719	543.731465	-412.304431	164.082555	459.139719	-396.104727	114.904992	383.260387	-401.998553	168.803421	460.191139	-353.742596	62.111973	258.817917	-396.802300	-9.980569	233.222448	-364.967977	269.529111	153.388109	-363.853374	185.156991	145.138679	-428.322422	-263.682055	973.260345	-238.872403	-83.168445	79.152441	-437.931101	-83.268571	78.997833	-40.324191	
